<?xml version="1.0" encoding="utf-8"?>
<!-- Generator: Adobe Illustrator 16.0.4, SVG Export Plug-In . SVG Version: 6.00 Build 0)  -->
<!DOCTYPE svg PUBLIC "-//W3C//DTD SVG 1.1//EN" "http://www.w3.org/Graphics/SVG/1.1/DTD/svg11.dtd">
<svg version="1.1" id="Layer_1" xmlns="http://www.w3.org/2000/svg" xmlns:xlink="http://www.w3.org/1999/xlink" x="0px" y="0px"
	 width="30px" height="30px" viewBox="0 0 30 30" enable-background="new 0 0 30 30" xml:space="preserve">
<g>
	<path fill="none" stroke="#000000" stroke-miterlimit="10" d="M18.612,12.453c-0.534-0.131-0.66-0.564-0.281-0.963
		c0,0,2.257-2.371,2.257-4.745C20.588,3.297,18.083,0.5,15,0.5c-3.086,0-5.585,2.797-5.585,6.246c0,2.374,2.251,4.744,2.251,4.744
		c0.379,0.399,0.252,0.833-0.282,0.964l-8.925,2.149C1.932,14.757,1.5,15.333,1.5,15.883V28.5c0,0.55,0.45,1,1,1h25
		c0.55,0,1-0.45,1-1V15.883c0-0.55-0.432-1.126-0.96-1.281L18.612,12.453z"/>
</g>
<path fill="none" stroke="#000000" stroke-linecap="round" stroke-linejoin="round" stroke-miterlimit="10" d="M18,14.5
	c0,0-0.71,0.5-3,0.5c-2.154,0-3-0.5-3-0.5"/>
<polygon fill="#FFFFFF" stroke="#000000" stroke-linecap="round" stroke-linejoin="round" stroke-miterlimit="10" points="
	17.562,25.5 15,27.5 12.438,25.5 15,16.5 "/>
</svg>
