<?xml version="1.0" encoding="utf-8"?>
<!-- Generator: Adobe Illustrator 16.0.4, SVG Export Plug-In . SVG Version: 6.00 Build 0)  -->
<!DOCTYPE svg PUBLIC "-//W3C//DTD SVG 1.1//EN" "http://www.w3.org/Graphics/SVG/1.1/DTD/svg11.dtd">
<svg version="1.1" id="Layer_1" xmlns="http://www.w3.org/2000/svg" xmlns:xlink="http://www.w3.org/1999/xlink" x="0px" y="0px"
	 width="30px" height="30px" viewBox="0 0 30 30" enable-background="new 0 0 30 30" xml:space="preserve">
<g>
	<path fill="#FFFFFF" d="M3.5,29C2.673,29,2,28.327,2,27.5V15.891c0-0.77,0.579-1.544,1.318-1.762l8.146-1.968
		c0.063-0.016,0.101-0.036,0.119-0.049c-0.014-0.002-0.035-0.04-0.082-0.089c-0.088-0.094-2.172-2.327-2.172-4.708
		C9.329,3.833,11.873,1,15,1c3.129,0,5.674,2.833,5.674,6.315c0,2.382-2.088,4.55-2.177,4.644C18.451,12.007,18.43,12,18.421,12
		c0.002,0,0.004,0,0.006,0c0.017,0,0.053,0.082,0.11,0.096l8.121,1.994C27.421,14.313,28,15.121,28,15.891V27.5
		c0,0.827-0.673,1.5-1.5,1.5H3.5z"/>
	<path d="M15,1.5c2.854,0,5.174,2.604,5.174,5.815c0,2.21-2.04,4.366-2.04,4.366c-0.378,0.399-0.251,0.834,0.283,0.966l7.874,1.962
		C26.818,14.764,27,15.341,27,15.891V27.5c0,0.55,0.05,1.5-0.5,1.5h-23C2.95,29,2,28.05,2,27.5V15.891
		c0-0.55,0.682-1.127,1.209-1.283l8.247-1.962c0.534-0.132,0.724-0.567,0.347-0.967c0,0-2.005-2.155-2.005-4.365
		C9.798,4.104,12.143,1.5,15,1.5 M15,0.5c-3.403,0-6.171,3.057-6.171,6.815c0,1.885,1.185,3.661,1.858,4.519l-7.712,1.803
		C1.971,13.931,1,14.895,1,15.891V27.5C1,28.603,2.397,30,3.5,30h23c1.103,0,1.5-1.397,1.5-2.5V15.891
		c0-0.997-0.471-1.96-1.427-2.242l-7.386-1.815c0.677-0.86,1.924-2.635,1.924-4.519C21.111,3.557,18.404,0.5,15,0.5L15,0.5z"/>
</g>
<path fill="none" stroke="#000000" stroke-miterlimit="10" d="M18,14.5c0,0-2.25,0.5-3,0.5s-3-0.5-3-0.5"/>
<path fill="none" stroke="#000000" stroke-linecap="round" stroke-linejoin="round" stroke-miterlimit="10" d="M18,14.5
	c0,0-0.71,0.5-3,0.5c-2.154,0-3-0.5-3-0.5"/>
<polygon fill="#FFFFFF" stroke="#000000" stroke-linecap="round" stroke-linejoin="round" stroke-miterlimit="10" points="
	17.562,25.5 15,27.5 12.438,25.5 15,16.5 "/>
</svg>
