<?xml version="1.0" encoding="utf-8"?>
<!-- Generator: Adobe Illustrator 16.0.4, SVG Export Plug-In . SVG Version: 6.00 Build 0)  -->
<!DOCTYPE svg PUBLIC "-//W3C//DTD SVG 1.1//EN" "http://www.w3.org/Graphics/SVG/1.1/DTD/svg11.dtd">
<svg version="1.1" id="Layer_2" xmlns="http://www.w3.org/2000/svg" xmlns:xlink="http://www.w3.org/1999/xlink" x="0px" y="0px"
	 width="30px" height="30px" viewBox="0 0 30 30" enable-background="new 0 0 30 30" xml:space="preserve">
<g>
	<path fill="none" stroke="#000000" stroke-miterlimit="10" d="M24.246,11.976c-0.536-0.123-0.653-0.538-0.26-0.922
		c0,0,0.704-0.689,0.704-1.754C24.69,7.754,23.484,6.5,22,6.5c-1.485,0-2.689,1.254-2.689,2.799c0,1.064,0.702,1.753,0.702,1.753
		c0.393,0.385,0.275,0.8-0.261,0.923l-3.287,0.708c-0.53,0.145-0.965,0.713-0.965,1.263V18.5c0,0.55,0.45,1,1,1h11
		c0.55,0,1-0.45,1-1v-4.553c0-0.55-0.435-1.119-0.965-1.263L24.246,11.976z"/>
</g>
<g>
	<path fill="none" stroke="#000000" stroke-miterlimit="10" d="M10.247,11.976c-0.537-0.123-0.653-0.538-0.261-0.922
		c0,0,0.705-0.689,0.705-1.754C10.69,7.754,9.484,6.5,8,6.5c-1.485,0-2.689,1.254-2.689,2.799c0,1.064,0.702,1.753,0.702,1.753
		c0.393,0.385,0.275,0.8-0.261,0.923l-3.287,0.708C1.934,12.829,1.5,13.397,1.5,13.947V18.5c0,0.55,0.45,1,1,1h11c0.55,0,1-0.45,1-1
		v-4.553c0-0.55-0.435-1.119-0.965-1.263L10.247,11.976z"/>
</g>
<g>
	<path fill="#FFFFFF" d="M17.441,14.783c-0.536-0.122-0.653-0.537-0.26-0.922c0,0,0.923-0.903,0.923-2.131
		c0-1.783-1.392-3.23-3.104-3.23c-1.714,0-3.104,1.447-3.104,3.23c0,1.229,0.92,2.13,0.92,2.13c0.393,0.385,0.276,0.801-0.26,0.923
		l-4.342,0.893C7.684,15.821,7,16.39,7,16.939V22.5C7,23.05,7.95,24,8.5,24h13c0.55,0,0.5-0.95,0.5-1.5v-5.561
		c0-0.55-0.185-1.118-0.715-1.264L17.441,14.783z"/>
	<path fill="none" stroke="#000000" stroke-miterlimit="10" d="M17.441,14.783c-0.536-0.122-0.653-0.537-0.26-0.922
		c0,0,0.923-0.903,0.923-2.131c0-1.783-1.392-3.23-3.104-3.23c-1.714,0-3.104,1.447-3.104,3.23c0,1.229,0.92,2.13,0.92,2.13
		c0.393,0.385,0.276,0.801-0.26,0.923l-4.092,0.893C7.934,15.821,7.5,16.39,7.5,16.939V22.5c0,0.55,0.45,1,1,1h13c0.55,0,1-0.45,1-1
		v-5.561c0-0.55-0.435-1.118-0.965-1.264L17.441,14.783z"/>
</g>
</svg>
